<svg width="14" height="15" viewBox="0 0 14 15" fill="none" xmlns="http://www.w3.org/2000/svg">
<path d="M4.61095 4.71L6.42919 1.02675C6.48139 0.919268 6.56277 0.828644 6.66404 0.765241C6.76532 0.701837 6.88239 0.668213 7.00187 0.668213C7.12135 0.668213 7.23842 0.701837 7.3397 0.765241C7.44097 0.828644 7.52235 0.919268 7.57455 1.02675L9.38897 4.71L13.455 5.30463C13.5723 5.3219 13.6825 5.37163 13.7732 5.44819C13.8638 5.52476 13.9312 5.62512 13.9678 5.73795C14.0044 5.85079 14.0088 5.97162 13.9804 6.0868C13.952 6.20199 13.892 6.30695 13.8072 6.38985L10.8655 9.25323L11.5594 13.3011C11.5787 13.4178 11.5651 13.5377 11.5201 13.6471C11.4751 13.7566 11.4005 13.8513 11.3046 13.9207C11.2088 13.9901 11.0955 14.0314 10.9774 14.0399C10.8594 14.0485 10.7413 14.024 10.6364 13.9692L6.99996 12.0603L3.36347 13.9692C3.25859 14.024 3.14051 14.0485 3.02249 14.0399C2.90446 14.0314 2.79116 13.9901 2.6953 13.9207C2.59944 13.8513 2.52482 13.7566 2.47981 13.6471C2.43481 13.5377 2.4212 13.4178 2.44051 13.3011L3.1344 9.25323L0.190853 6.38985C0.10596 6.30683 0.0459799 6.20171 0.0176901 6.08638C-0.0105997 5.97106 -0.00607145 5.85012 0.0307633 5.73723C0.067598 5.62435 0.135271 5.52401 0.226135 5.44757C0.316999 5.37112 0.427433 5.32161 0.544957 5.30463L4.61095 4.71Z" fill="#FF642F"/>
</svg>
